<mxfile host="65bd71144e">
    <diagram id="Q8SQ6WmOLPuWOTLYUsrM" name="Página-1">
        <mxGraphModel dx="573" dy="382" grid="1" gridSize="10" guides="1" tooltips="1" connect="1" arrows="1" fold="1" page="1" pageScale="1" pageWidth="1169" pageHeight="827" math="0" shadow="0">
            <root>
                <mxCell id="0"/>
                <mxCell id="1" parent="0"/>
                <mxCell id="2" value="Aluno" style="whiteSpace=wrap;html=1;align=center;" vertex="1" parent="1">
                    <mxGeometry x="120" y="40" width="100" height="40" as="geometry"/>
                </mxCell>
                <mxCell id="4" value="Curso" style="whiteSpace=wrap;html=1;align=center;" vertex="1" parent="1">
                    <mxGeometry x="520" y="40" width="100" height="40" as="geometry"/>
                </mxCell>
                <mxCell id="5" value="Turma" style="whiteSpace=wrap;html=1;align=center;" vertex="1" parent="1">
                    <mxGeometry x="320" y="140" width="100" height="40" as="geometry"/>
                </mxCell>
                <mxCell id="6" value="Professor" style="whiteSpace=wrap;html=1;align=center;" vertex="1" parent="1">
                    <mxGeometry x="320" y="240" width="100" height="40" as="geometry"/>
                </mxCell>
                <mxCell id="19" value="" style="endArrow=none;html=1;rounded=0;edgeStyle=orthogonalEdgeStyle;exitX=0.5;exitY=1;exitDx=0;exitDy=0;entryX=1;entryY=0.5;entryDx=0;entryDy=0;" edge="1" parent="1" source="4" target="5">
                    <mxGeometry relative="1" as="geometry">
                        <mxPoint x="575" y="90" as="sourcePoint"/>
                        <mxPoint x="565" y="220" as="targetPoint"/>
                    </mxGeometry>
                </mxCell>
                <mxCell id="20" value="N" style="resizable=0;html=1;align=right;verticalAlign=bottom;" connectable="0" vertex="1" parent="19">
                    <mxGeometry x="1" relative="1" as="geometry">
                        <mxPoint x="14" y="-1" as="offset"/>
                    </mxGeometry>
                </mxCell>
                <mxCell id="22" value="" style="endArrow=none;html=1;rounded=0;edgeStyle=orthogonalEdgeStyle;exitX=0.5;exitY=1;exitDx=0;exitDy=0;entryX=0;entryY=0.5;entryDx=0;entryDy=0;" edge="1" parent="1" source="2" target="5">
                    <mxGeometry relative="1" as="geometry">
                        <mxPoint x="150" y="120" as="sourcePoint"/>
                        <mxPoint x="310" y="120" as="targetPoint"/>
                    </mxGeometry>
                </mxCell>
                <mxCell id="23" value="M" style="resizable=0;html=1;align=left;verticalAlign=bottom;" connectable="0" vertex="1" parent="22">
                    <mxGeometry x="-1" relative="1" as="geometry">
                        <mxPoint x="4" y="20" as="offset"/>
                    </mxGeometry>
                </mxCell>
                <mxCell id="24" value="N" style="resizable=0;html=1;align=right;verticalAlign=bottom;" connectable="0" vertex="1" parent="22">
                    <mxGeometry x="1" relative="1" as="geometry">
                        <mxPoint x="-4" y="-3" as="offset"/>
                    </mxGeometry>
                </mxCell>
                <mxCell id="25" value="" style="endArrow=none;html=1;rounded=0;edgeStyle=orthogonalEdgeStyle;exitX=0.5;exitY=0;exitDx=0;exitDy=0;entryX=0.5;entryY=1;entryDx=0;entryDy=0;" edge="1" parent="1" source="6" target="5">
                    <mxGeometry relative="1" as="geometry">
                        <mxPoint x="440" y="270" as="sourcePoint"/>
                        <mxPoint x="590" y="190" as="targetPoint"/>
                    </mxGeometry>
                </mxCell>
                <mxCell id="26" value="N" style="resizable=0;html=1;align=right;verticalAlign=bottom;" connectable="0" vertex="1" parent="25">
                    <mxGeometry x="1" relative="1" as="geometry">
                        <mxPoint x="-4" y="20" as="offset"/>
                    </mxGeometry>
                </mxCell>
            </root>
        </mxGraphModel>
    </diagram>
    <diagram id="ko68k73PWH7Gud72M-r9" name="Página-2">
        <mxGraphModel dx="955" dy="637" grid="1" gridSize="10" guides="1" tooltips="1" connect="1" arrows="1" fold="1" page="1" pageScale="1" pageWidth="1169" pageHeight="827" math="0" shadow="0">
            <root>
                <mxCell id="0"/>
                <mxCell id="1" parent="0"/>
                <mxCell id="dzI9R8WdITk1JNDo9tBr-1" value="Aluno" style="swimlane;fontStyle=0;childLayout=stackLayout;horizontal=1;startSize=26;fillColor=none;horizontalStack=0;resizeParent=1;resizeParentMax=0;resizeLast=0;collapsible=1;marginBottom=0;" vertex="1" parent="1">
                    <mxGeometry x="80" y="90" width="170" height="338" as="geometry"/>
                </mxCell>
                <mxCell id="dzI9R8WdITk1JNDo9tBr-2" value="_id: ObjectId" style="text;strokeColor=none;fillColor=none;align=left;verticalAlign=top;spacingLeft=4;spacingRight=4;overflow=hidden;rotatable=0;points=[[0,0.5],[1,0.5]];portConstraint=eastwest;" vertex="1" parent="dzI9R8WdITk1JNDo9tBr-1">
                    <mxGeometry y="26" width="170" height="26" as="geometry"/>
                </mxCell>
                <mxCell id="dzI9R8WdITk1JNDo9tBr-3" value="nome: String" style="text;strokeColor=none;fillColor=none;align=left;verticalAlign=top;spacingLeft=4;spacingRight=4;overflow=hidden;rotatable=0;points=[[0,0.5],[1,0.5]];portConstraint=eastwest;" vertex="1" parent="dzI9R8WdITk1JNDo9tBr-1">
                    <mxGeometry y="52" width="170" height="26" as="geometry"/>
                </mxCell>
                <mxCell id="dzI9R8WdITk1JNDo9tBr-4" value="cpf: String" style="text;strokeColor=none;fillColor=none;align=left;verticalAlign=top;spacingLeft=4;spacingRight=4;overflow=hidden;rotatable=0;points=[[0,0.5],[1,0.5]];portConstraint=eastwest;" vertex="1" parent="dzI9R8WdITk1JNDo9tBr-1">
                    <mxGeometry y="78" width="170" height="26" as="geometry"/>
                </mxCell>
                <mxCell id="dzI9R8WdITk1JNDo9tBr-18" value="data_nascimento: DateTime" style="text;strokeColor=none;fillColor=none;align=left;verticalAlign=top;spacingLeft=4;spacingRight=4;overflow=hidden;rotatable=0;points=[[0,0.5],[1,0.5]];portConstraint=eastwest;" vertex="1" parent="dzI9R8WdITk1JNDo9tBr-1">
                    <mxGeometry y="104" width="170" height="26" as="geometry"/>
                </mxCell>
                <mxCell id="dzI9R8WdITk1JNDo9tBr-17" value="logradouro: String" style="text;strokeColor=none;fillColor=none;align=left;verticalAlign=top;spacingLeft=4;spacingRight=4;overflow=hidden;rotatable=0;points=[[0,0.5],[1,0.5]];portConstraint=eastwest;" vertex="1" parent="dzI9R8WdITk1JNDo9tBr-1">
                    <mxGeometry y="130" width="170" height="26" as="geometry"/>
                </mxCell>
                <mxCell id="dzI9R8WdITk1JNDo9tBr-19" value="num_imovel: String" style="text;strokeColor=none;fillColor=none;align=left;verticalAlign=top;spacingLeft=4;spacingRight=4;overflow=hidden;rotatable=0;points=[[0,0.5],[1,0.5]];portConstraint=eastwest;" vertex="1" parent="dzI9R8WdITk1JNDo9tBr-1">
                    <mxGeometry y="156" width="170" height="26" as="geometry"/>
                </mxCell>
                <mxCell id="dzI9R8WdITk1JNDo9tBr-20" value="complemento?: String" style="text;strokeColor=none;fillColor=none;align=left;verticalAlign=top;spacingLeft=4;spacingRight=4;overflow=hidden;rotatable=0;points=[[0,0.5],[1,0.5]];portConstraint=eastwest;" vertex="1" parent="dzI9R8WdITk1JNDo9tBr-1">
                    <mxGeometry y="182" width="170" height="26" as="geometry"/>
                </mxCell>
                <mxCell id="dzI9R8WdITk1JNDo9tBr-21" value="bairro: String" style="text;strokeColor=none;fillColor=none;align=left;verticalAlign=top;spacingLeft=4;spacingRight=4;overflow=hidden;rotatable=0;points=[[0,0.5],[1,0.5]];portConstraint=eastwest;" vertex="1" parent="dzI9R8WdITk1JNDo9tBr-1">
                    <mxGeometry y="208" width="170" height="26" as="geometry"/>
                </mxCell>
                <mxCell id="dzI9R8WdITk1JNDo9tBr-22" value="municipio: String" style="text;strokeColor=none;fillColor=none;align=left;verticalAlign=top;spacingLeft=4;spacingRight=4;overflow=hidden;rotatable=0;points=[[0,0.5],[1,0.5]];portConstraint=eastwest;" vertex="1" parent="dzI9R8WdITk1JNDo9tBr-1">
                    <mxGeometry y="234" width="170" height="26" as="geometry"/>
                </mxCell>
                <mxCell id="dzI9R8WdITk1JNDo9tBr-23" value="uf: String" style="text;strokeColor=none;fillColor=none;align=left;verticalAlign=top;spacingLeft=4;spacingRight=4;overflow=hidden;rotatable=0;points=[[0,0.5],[1,0.5]];portConstraint=eastwest;" vertex="1" parent="dzI9R8WdITk1JNDo9tBr-1">
                    <mxGeometry y="260" width="170" height="26" as="geometry"/>
                </mxCell>
                <mxCell id="dzI9R8WdITk1JNDo9tBr-24" value="email: String" style="text;strokeColor=none;fillColor=none;align=left;verticalAlign=top;spacingLeft=4;spacingRight=4;overflow=hidden;rotatable=0;points=[[0,0.5],[1,0.5]];portConstraint=eastwest;" vertex="1" parent="dzI9R8WdITk1JNDo9tBr-1">
                    <mxGeometry y="286" width="170" height="26" as="geometry"/>
                </mxCell>
                <mxCell id="dzI9R8WdITk1JNDo9tBr-25" value="telefone: String" style="text;strokeColor=none;fillColor=none;align=left;verticalAlign=top;spacingLeft=4;spacingRight=4;overflow=hidden;rotatable=0;points=[[0,0.5],[1,0.5]];portConstraint=eastwest;" vertex="1" parent="dzI9R8WdITk1JNDo9tBr-1">
                    <mxGeometry y="312" width="170" height="26" as="geometry"/>
                </mxCell>
                <mxCell id="dzI9R8WdITk1JNDo9tBr-5" value="Curso" style="swimlane;fontStyle=0;childLayout=stackLayout;horizontal=1;startSize=26;fillColor=none;horizontalStack=0;resizeParent=1;resizeParentMax=0;resizeLast=0;collapsible=1;marginBottom=0;" vertex="1" parent="1">
                    <mxGeometry x="600" y="90" width="140" height="130" as="geometry"/>
                </mxCell>
                <mxCell id="dzI9R8WdITk1JNDo9tBr-6" value="_id: ObjectId" style="text;strokeColor=none;fillColor=none;align=left;verticalAlign=top;spacingLeft=4;spacingRight=4;overflow=hidden;rotatable=0;points=[[0,0.5],[1,0.5]];portConstraint=eastwest;" vertex="1" parent="dzI9R8WdITk1JNDo9tBr-5">
                    <mxGeometry y="26" width="140" height="26" as="geometry"/>
                </mxCell>
                <mxCell id="dzI9R8WdITk1JNDo9tBr-7" value="nome: String" style="text;strokeColor=none;fillColor=none;align=left;verticalAlign=top;spacingLeft=4;spacingRight=4;overflow=hidden;rotatable=0;points=[[0,0.5],[1,0.5]];portConstraint=eastwest;" vertex="1" parent="dzI9R8WdITk1JNDo9tBr-5">
                    <mxGeometry y="52" width="140" height="26" as="geometry"/>
                </mxCell>
                <mxCell id="dzI9R8WdITk1JNDo9tBr-8" value="nivel: String" style="text;strokeColor=none;fillColor=none;align=left;verticalAlign=top;spacingLeft=4;spacingRight=4;overflow=hidden;rotatable=0;points=[[0,0.5],[1,0.5]];portConstraint=eastwest;" vertex="1" parent="dzI9R8WdITk1JNDo9tBr-5">
                    <mxGeometry y="78" width="140" height="26" as="geometry"/>
                </mxCell>
                <mxCell id="dzI9R8WdITk1JNDo9tBr-27" value="area: String" style="text;strokeColor=none;fillColor=none;align=left;verticalAlign=top;spacingLeft=4;spacingRight=4;overflow=hidden;rotatable=0;points=[[0,0.5],[1,0.5]];portConstraint=eastwest;" vertex="1" parent="dzI9R8WdITk1JNDo9tBr-5">
                    <mxGeometry y="104" width="140" height="26" as="geometry"/>
                </mxCell>
                <mxCell id="dzI9R8WdITk1JNDo9tBr-9" value="Turma" style="swimlane;fontStyle=0;childLayout=stackLayout;horizontal=1;startSize=26;fillColor=none;horizontalStack=0;resizeParent=1;resizeParentMax=0;resizeLast=0;collapsible=1;marginBottom=0;" vertex="1" parent="1">
                    <mxGeometry x="360" y="300" width="140" height="130" as="geometry"/>
                </mxCell>
                <mxCell id="dzI9R8WdITk1JNDo9tBr-10" value="_id: ObjectId" style="text;strokeColor=none;fillColor=none;align=left;verticalAlign=top;spacingLeft=4;spacingRight=4;overflow=hidden;rotatable=0;points=[[0,0.5],[1,0.5]];portConstraint=eastwest;" vertex="1" parent="dzI9R8WdITk1JNDo9tBr-9">
                    <mxGeometry y="26" width="140" height="26" as="geometry"/>
                </mxCell>
                <mxCell id="dzI9R8WdITk1JNDo9tBr-11" value="dia_semana: String" style="text;strokeColor=none;fillColor=none;align=left;verticalAlign=top;spacingLeft=4;spacingRight=4;overflow=hidden;rotatable=0;points=[[0,0.5],[1,0.5]];portConstraint=eastwest;" vertex="1" parent="dzI9R8WdITk1JNDo9tBr-9">
                    <mxGeometry y="52" width="140" height="26" as="geometry"/>
                </mxCell>
                <mxCell id="dzI9R8WdITk1JNDo9tBr-12" value="hora_inicial: Int" style="text;strokeColor=none;fillColor=none;align=left;verticalAlign=top;spacingLeft=4;spacingRight=4;overflow=hidden;rotatable=0;points=[[0,0.5],[1,0.5]];portConstraint=eastwest;" vertex="1" parent="dzI9R8WdITk1JNDo9tBr-9">
                    <mxGeometry y="78" width="140" height="26" as="geometry"/>
                </mxCell>
                <mxCell id="dzI9R8WdITk1JNDo9tBr-32" value="hora_final: Int" style="text;strokeColor=none;fillColor=none;align=left;verticalAlign=top;spacingLeft=4;spacingRight=4;overflow=hidden;rotatable=0;points=[[0,0.5],[1,0.5]];portConstraint=eastwest;" vertex="1" parent="dzI9R8WdITk1JNDo9tBr-9">
                    <mxGeometry y="104" width="140" height="26" as="geometry"/>
                </mxCell>
                <mxCell id="dzI9R8WdITk1JNDo9tBr-13" value="Professor" style="swimlane;fontStyle=0;childLayout=stackLayout;horizontal=1;startSize=26;fillColor=none;horizontalStack=0;resizeParent=1;resizeParentMax=0;resizeLast=0;collapsible=1;marginBottom=0;" vertex="1" parent="1">
                    <mxGeometry x="600" y="380" width="160" height="208" as="geometry"/>
                </mxCell>
                <mxCell id="dzI9R8WdITk1JNDo9tBr-14" value="_id: ObjectId" style="text;strokeColor=none;fillColor=none;align=left;verticalAlign=top;spacingLeft=4;spacingRight=4;overflow=hidden;rotatable=0;points=[[0,0.5],[1,0.5]];portConstraint=eastwest;" vertex="1" parent="dzI9R8WdITk1JNDo9tBr-13">
                    <mxGeometry y="26" width="160" height="26" as="geometry"/>
                </mxCell>
                <mxCell id="dzI9R8WdITk1JNDo9tBr-15" value="nome: String" style="text;strokeColor=none;fillColor=none;align=left;verticalAlign=top;spacingLeft=4;spacingRight=4;overflow=hidden;rotatable=0;points=[[0,0.5],[1,0.5]];portConstraint=eastwest;" vertex="1" parent="dzI9R8WdITk1JNDo9tBr-13">
                    <mxGeometry y="52" width="160" height="26" as="geometry"/>
                </mxCell>
                <mxCell id="dzI9R8WdITk1JNDo9tBr-28" value="formacao: String" style="text;strokeColor=none;fillColor=none;align=left;verticalAlign=top;spacingLeft=4;spacingRight=4;overflow=hidden;rotatable=0;points=[[0,0.5],[1,0.5]];portConstraint=eastwest;" vertex="1" parent="dzI9R8WdITk1JNDo9tBr-13">
                    <mxGeometry y="78" width="160" height="26" as="geometry"/>
                </mxCell>
                <mxCell id="dzI9R8WdITk1JNDo9tBr-29" value="cpf: String" style="text;strokeColor=none;fillColor=none;align=left;verticalAlign=top;spacingLeft=4;spacingRight=4;overflow=hidden;rotatable=0;points=[[0,0.5],[1,0.5]];portConstraint=eastwest;" vertex="1" parent="dzI9R8WdITk1JNDo9tBr-13">
                    <mxGeometry y="104" width="160" height="26" as="geometry"/>
                </mxCell>
                <mxCell id="dzI9R8WdITk1JNDo9tBr-30" value="data_nascimento: DateTime" style="text;strokeColor=none;fillColor=none;align=left;verticalAlign=top;spacingLeft=4;spacingRight=4;overflow=hidden;rotatable=0;points=[[0,0.5],[1,0.5]];portConstraint=eastwest;" vertex="1" parent="dzI9R8WdITk1JNDo9tBr-13">
                    <mxGeometry y="130" width="160" height="26" as="geometry"/>
                </mxCell>
                <mxCell id="dzI9R8WdITk1JNDo9tBr-31" value="email: String" style="text;strokeColor=none;fillColor=none;align=left;verticalAlign=top;spacingLeft=4;spacingRight=4;overflow=hidden;rotatable=0;points=[[0,0.5],[1,0.5]];portConstraint=eastwest;" vertex="1" parent="dzI9R8WdITk1JNDo9tBr-13">
                    <mxGeometry y="156" width="160" height="26" as="geometry"/>
                </mxCell>
                <mxCell id="dzI9R8WdITk1JNDo9tBr-16" value="telefone: String" style="text;strokeColor=none;fillColor=none;align=left;verticalAlign=top;spacingLeft=4;spacingRight=4;overflow=hidden;rotatable=0;points=[[0,0.5],[1,0.5]];portConstraint=eastwest;" vertex="1" parent="dzI9R8WdITk1JNDo9tBr-13">
                    <mxGeometry y="182" width="160" height="26" as="geometry"/>
                </mxCell>
                <mxCell id="GTmlLnvOXPL63zUHhVtp-1" value="" style="endArrow=diamondThin;endFill=1;endSize=24;html=1;entryX=0.5;entryY=0;entryDx=0;entryDy=0;edgeStyle=orthogonalEdgeStyle;exitX=0.75;exitY=0;exitDx=0;exitDy=0;" edge="1" parent="1" source="dzI9R8WdITk1JNDo9tBr-9" target="dzI9R8WdITk1JNDo9tBr-13">
                    <mxGeometry width="160" relative="1" as="geometry">
                        <mxPoint x="520" y="277" as="sourcePoint"/>
                        <mxPoint x="660" y="324.5" as="targetPoint"/>
                        <Array as="points">
                            <mxPoint x="465" y="280"/>
                            <mxPoint x="680" y="280"/>
                        </Array>
                    </mxGeometry>
                </mxCell>
                <mxCell id="GTmlLnvOXPL63zUHhVtp-3" value="n" style="edgeLabel;html=1;align=center;verticalAlign=middle;resizable=0;points=[];" vertex="1" connectable="0" parent="GTmlLnvOXPL63zUHhVtp-1">
                    <mxGeometry x="-0.338" y="-2" relative="1" as="geometry">
                        <mxPoint x="-83" y="8" as="offset"/>
                    </mxGeometry>
                </mxCell>
                <mxCell id="GTmlLnvOXPL63zUHhVtp-4" value="" style="endArrow=diamondThin;endFill=1;endSize=24;html=1;entryX=0.5;entryY=0;entryDx=0;entryDy=0;edgeStyle=orthogonalEdgeStyle;exitX=0.5;exitY=0;exitDx=0;exitDy=0;" edge="1" parent="1" source="dzI9R8WdITk1JNDo9tBr-9" target="dzI9R8WdITk1JNDo9tBr-5">
                    <mxGeometry width="160" relative="1" as="geometry">
                        <mxPoint x="360" y="70" as="sourcePoint"/>
                        <mxPoint x="575" y="150" as="targetPoint"/>
                        <Array as="points">
                            <mxPoint x="430" y="50"/>
                            <mxPoint x="670" y="50"/>
                        </Array>
                    </mxGeometry>
                </mxCell>
                <mxCell id="GTmlLnvOXPL63zUHhVtp-5" value="n" style="edgeLabel;html=1;align=center;verticalAlign=middle;resizable=0;points=[];" vertex="1" connectable="0" parent="GTmlLnvOXPL63zUHhVtp-4">
                    <mxGeometry x="-0.338" y="-2" relative="1" as="geometry">
                        <mxPoint x="-9" y="165" as="offset"/>
                    </mxGeometry>
                </mxCell>
                <mxCell id="GTmlLnvOXPL63zUHhVtp-6" value="" style="endArrow=diamondThin;endFill=0;endSize=24;html=1;entryX=0.25;entryY=0;entryDx=0;entryDy=0;edgeStyle=orthogonalEdgeStyle;exitX=0.5;exitY=0;exitDx=0;exitDy=0;" edge="1" parent="1" source="dzI9R8WdITk1JNDo9tBr-1" target="dzI9R8WdITk1JNDo9tBr-9">
                    <mxGeometry width="160" relative="1" as="geometry">
                        <mxPoint x="230" y="30" as="sourcePoint"/>
                        <mxPoint x="390" y="250" as="targetPoint"/>
                        <Array as="points">
                            <mxPoint x="165" y="40"/>
                            <mxPoint x="395" y="40"/>
                        </Array>
                    </mxGeometry>
                </mxCell>
                <mxCell id="GTmlLnvOXPL63zUHhVtp-7" value="m" style="edgeLabel;html=1;align=center;verticalAlign=middle;resizable=0;points=[];" vertex="1" connectable="0" parent="GTmlLnvOXPL63zUHhVtp-6">
                    <mxGeometry x="-0.2928" y="1" relative="1" as="geometry">
                        <mxPoint x="-150" y="42" as="offset"/>
                    </mxGeometry>
                </mxCell>
                <mxCell id="GTmlLnvOXPL63zUHhVtp-8" value="n" style="edgeLabel;html=1;align=center;verticalAlign=middle;resizable=0;points=[];" vertex="1" connectable="0" parent="GTmlLnvOXPL63zUHhVtp-6">
                    <mxGeometry x="-0.4724" relative="1" as="geometry">
                        <mxPoint x="123" y="249" as="offset"/>
                    </mxGeometry>
                </mxCell>
            </root>
        </mxGraphModel>
    </diagram>
</mxfile>